<svg id="arroba" xmlns="http://www.w3.org/2000/svg" width="20" height="20" viewBox="0 0 20 20">
  <g id="Group_4" data-name="Group 4" transform="translate(8.087 8.011)">
    <g id="Group_3" data-name="Group 3">
      <path id="Path_13" data-name="Path 13" d="M213.951,210a1.951,1.951,0,1,0,1.951,1.951A1.953,1.953,0,0,0,213.951,210Z" transform="translate(-212 -210)" fill="#fff"/>
    </g>
  </g>
  <g id="Group_6" data-name="Group 6">
    <g id="Group_5" data-name="Group 5">
      <path id="Path_14" data-name="Path 14" d="M9.961,0a10,10,0,0,0,0,20A10.106,10.106,0,0,0,20,9.961,10.039,10.039,0,0,0,9.961,0Zm4.18,12.891a2.339,2.339,0,0,1-1.915-1A2.931,2.931,0,1,1,11.8,7.632V7.617a.586.586,0,1,1,1.172,0v2.93a1.172,1.172,0,1,0,2.344,0c0-3.922-2.595-5.859-5.273-5.859a5.273,5.273,0,1,0,0,10.547,5.217,5.217,0,0,0,3.206-1.086.586.586,0,0,1,.714.929,6.382,6.382,0,0,1-3.92,1.329,6.445,6.445,0,1,1,0-12.891c3.238,0,6.445,2.388,6.445,7.031A2.346,2.346,0,0,1,14.141,12.891Z" fill="#fff"/>
    </g>
  </g>
</svg>
