<svg id="calendar" xmlns="http://www.w3.org/2000/svg" width="24" height="24" viewBox="0 0 24 24">
  <g id="Group_10171" data-name="Group 10171">
    <g id="Group_10170" data-name="Group 10170">
      <circle id="Ellipse_258" data-name="Ellipse 258" cx="1.219" cy="1.219" r="1.219" transform="translate(17.066 8.827)" fill="#fff"/>
      <path id="Path_2526" data-name="Path 2526" d="M20.25,1.875H19.031V.937a.937.937,0,1,0-1.875,0v.937H12.891V.937a.937.937,0,1,0-1.875,0v.937H6.8V.937a.938.938,0,0,0-1.875,0v.937H3.75A3.754,3.754,0,0,0,0,5.625V20.25A3.754,3.754,0,0,0,3.75,24h7.172a.937.937,0,0,0,0-1.875H3.75A1.877,1.877,0,0,1,1.875,20.25V5.625A1.877,1.877,0,0,1,3.75,3.75H4.922v.938a.938.938,0,0,0,1.875,0V3.75h4.219v.938a.937.937,0,0,0,1.875,0V3.75h4.266v.938a.937.937,0,1,0,1.875,0V3.75H20.25a1.877,1.877,0,0,1,1.875,1.875v5.344a.938.938,0,0,0,1.875,0V5.625A3.754,3.754,0,0,0,20.25,1.875Z" transform="translate(0)" fill="#fff"/>
      <path id="Path_2527" data-name="Path 2527" d="M275.853,270a5.853,5.853,0,1,0,5.853,5.853A5.86,5.86,0,0,0,275.853,270Zm0,9.772a3.918,3.918,0,1,1,3.918-3.918A3.923,3.923,0,0,1,275.853,279.772Z" transform="translate(-257.707 -257.707)" fill="#fff"/>
      <path id="Path_2528" data-name="Path 2528" d="M373.37,331.983h-.435v-1.016a.967.967,0,1,0-1.935,0v1.983a.968.968,0,0,0,.968.967h1.4a.967.967,0,1,0,0-1.935Z" transform="translate(-353.821 -314.624)" fill="#fff"/>
      <ellipse id="Ellipse_259" data-name="Ellipse 259" cx="0.914" cy="1.219" rx="0.914" ry="1.219" transform="translate(12.959 8.827)" fill="#fff"/>
      <ellipse id="Ellipse_260" data-name="Ellipse 260" cx="1.219" cy="0.914" rx="1.219" ry="0.914" transform="translate(8.827 12.959)" fill="#fff"/>
      <ellipse id="Ellipse_261" data-name="Ellipse 261" cx="0.914" cy="1.219" rx="0.914" ry="1.219" transform="translate(4.712 8.827)" fill="#fff"/>
      <circle id="Ellipse_262" data-name="Ellipse 262" cx="0.914" cy="0.914" r="0.914" transform="translate(4.712 12.959)" fill="#fff"/>
      <circle id="Ellipse_263" data-name="Ellipse 263" cx="0.914" cy="0.914" r="0.914" transform="translate(4.712 17.082)" fill="#fff"/>
      <ellipse id="Ellipse_264" data-name="Ellipse 264" cx="1.219" cy="0.914" rx="1.219" ry="0.914" transform="translate(8.827 17.082)" fill="#fff"/>
      <circle id="Ellipse_265" data-name="Ellipse 265" cx="1.219" cy="1.219" r="1.219" transform="translate(8.827 8.827)" fill="#fff"/>
    </g>
  </g>
</svg>
