<svg xmlns="http://www.w3.org/2000/svg" width="40" height="27.097" viewBox="0 0 40 27.097">
  <path id="Path_2499" data-name="Path 2499" d="M35.668,0H4.332A4.336,4.336,0,0,0,0,4.332V22.765A4.336,4.336,0,0,0,4.332,27.1H35.668A4.336,4.336,0,0,0,40,22.765V4.332A4.336,4.336,0,0,0,35.668,0ZM1.29,7.047H38.71v2.68H1.29ZM4.332,1.29H35.668A3.045,3.045,0,0,1,38.71,4.332V5.757H1.29V4.332A3.045,3.045,0,0,1,4.332,1.29ZM35.668,25.806H4.332A3.045,3.045,0,0,1,1.29,22.765V11.017H38.71V22.765A3.045,3.045,0,0,1,35.668,25.806Zm0,0"/>
</svg>
