<svg id="close" xmlns="http://www.w3.org/2000/svg" width="35.148" height="35.148" viewBox="0 0 35.148 35.148">
  <g id="Group_9859" data-name="Group 9859" transform="translate(0)">
    <g id="Group_9858" data-name="Group 9858">
      <path id="Path_2482" data-name="Path 2482" d="M30,5.147A17.574,17.574,0,0,0,5.147,30,17.574,17.574,0,0,0,30,5.147Zm-1.456,23.4A15.515,15.515,0,0,1,6.6,6.6,15.515,15.515,0,1,1,28.545,28.545Z" transform="translate(0)" fill="#818286"/>
    </g>
  </g>
  <g id="Group_9861" data-name="Group 9861" transform="translate(9.525 9.525)">
    <g id="Group_9860" data-name="Group 9860">
      <path id="Path_2483" data-name="Path 2483" d="M154.549,153.094l-6.291-6.291,6.291-6.291a1.03,1.03,0,0,0-1.456-1.456l-6.291,6.291-6.291-6.291a1.03,1.03,0,0,0-1.456,1.456l6.291,6.291-6.291,6.291a1.03,1.03,0,0,0,1.456,1.456l6.291-6.291,6.291,6.291a1.03,1.03,0,0,0,1.456-1.456Z" transform="translate(-138.753 -138.754)" fill="#818286"/>
    </g>
  </g>
</svg>
