<svg xmlns="http://www.w3.org/2000/svg" width="22.703" height="25" viewBox="0 0 22.703 25">
  <g id="delete" transform="translate(-13.838)">
    <g id="Group_10052" data-name="Group 10052" transform="translate(16.27 3.272)">
      <g id="Group_10051" data-name="Group 10051">
        <path id="Path_2505" data-name="Path 2505" d="M78.288,98.512l-1.5,18.647H65.762l-1.5-18.647-1.9.182,1.531,18.985a1.668,1.668,0,0,0,1.589,1.561h11.6a1.672,1.672,0,0,0,1.59-1.574l1.53-18.973Z" transform="translate(-62.354 -97.512)" fill="#947a63"/>
      </g>
    </g>
    <g id="Group_10054" data-name="Group 10054" transform="translate(19.64)">
      <g id="Group_10053" data-name="Group 10053">
        <path id="Path_2506" data-name="Path 2506" d="M154.662,0h-7.63A1.736,1.736,0,0,0,145.3,1.734V5.029h2.081V2.081h6.937V5.029H156.4V1.734A1.736,1.736,0,0,0,154.662,0Z" transform="translate(-145.297)" fill="#947a63"/>
      </g>
    </g>
    <g id="Group_10056" data-name="Group 10056" transform="translate(13.838 3.707)">
      <g id="Group_10055" data-name="Group 10055">
        <path id="Path_2507" data-name="Path 2507" d="M35.568,79.568H14.811a1.043,1.043,0,0,0,0,2.081H35.568a1.043,1.043,0,0,0,0-2.081Z" transform="translate(-13.838 -79.568)" fill="#947a63"/>
      </g>
    </g>
  </g>
</svg>
