<svg xmlns="http://www.w3.org/2000/svg" width="40.969" height="40.97" viewBox="0 0 40.969 40.97">
  <path id="Subtraction_3" data-name="Subtraction 3" d="M-3683.514-11205.031a20.355,20.355,0,0,1-14.486-6,20.351,20.351,0,0,1-6-14.485,20.355,20.355,0,0,1,6-14.485,20.351,20.351,0,0,1,14.486-6,20.351,20.351,0,0,1,14.484,6,20.351,20.351,0,0,1,6,14.485,20.351,20.351,0,0,1-6,14.485A20.354,20.354,0,0,1-3683.514-11205.031Zm.248-32.093a11.47,11.47,0,0,0-4.519.914,11.648,11.648,0,0,0-3.706,2.473,11.7,11.7,0,0,0-2.472,3.7,11.458,11.458,0,0,0-.915,4.519,11.472,11.472,0,0,0,.915,4.521,11.727,11.727,0,0,0,2.472,3.7,11.656,11.656,0,0,0,3.706,2.472,11.442,11.442,0,0,0,4.519.915,11.634,11.634,0,0,0,5.842-1.451,9.978,9.978,0,0,0,3.923-4.03,12.279,12.279,0,0,0,1.377-5.856,11.064,11.064,0,0,0-.184-1.937h-10.959v3.991h6.59a5.472,5.472,0,0,1-.339,1.18,5.752,5.752,0,0,1-.779,1.315,6.575,6.575,0,0,1-1.239,1.239,6.11,6.11,0,0,1-1.815.908,7.771,7.771,0,0,1-2.419.361,6.955,6.955,0,0,1-3.6-.982,7.276,7.276,0,0,1-2.625-2.667,7.311,7.311,0,0,1-.968-3.683,7.309,7.309,0,0,1,.968-3.681,7.276,7.276,0,0,1,2.625-2.667,6.955,6.955,0,0,1,3.6-.982,6.413,6.413,0,0,1,4.626,1.8l3.161-3.037A11.053,11.053,0,0,0-3683.266-11237.124Z" transform="translate(3703.999 11246.001)" fill="#947a63"/>
</svg>
