<svg id="home" xmlns="http://www.w3.org/2000/svg" width="24" height="24.021" viewBox="0 0 24 24.021">
  <g id="Group_10172" data-name="Group 10172" transform="translate(0 0)">
    <path id="Path_2529" data-name="Path 2529" d="M23.967,11.4,22.252,9.688,12.815.251a.858.858,0,0,0-1.213,0L2.165,9.688.449,11.4a.858.858,0,0,0,1.213,1.213l.25-.252v10.8a.858.858,0,0,0,.858.858H21.645a.858.858,0,0,0,.858-.858v-10.8l.251.251A.858.858,0,0,0,23.967,11.4ZM14.781,22.3H9.634V15.441h5.148Zm6.005,0H16.5V14.583a.858.858,0,0,0-.858-.858H8.776a.858.858,0,0,0-.858.858V22.3H3.628V10.649L12.207,2.07l8.579,8.579Z" transform="translate(-0.208 0)" fill="#fff"/>
  </g>
</svg>
