<svg id="instagram" xmlns="http://www.w3.org/2000/svg" width="40.97" height="40.97" viewBox="0 0 40.97 40.97">
  <path id="Path_2555" data-name="Path 2555" d="M214.842,210.921A3.921,3.921,0,1,1,210.921,207,3.921,3.921,0,0,1,214.842,210.921Zm0,0" transform="translate(-190.436 -190.436)" fill="#947a63"/>
  <path id="Path_2556" data-name="Path 2556" d="M154.3,138.195a3.9,3.9,0,0,0-2.232-2.232,6.508,6.508,0,0,0-2.184-.4c-1.241-.057-1.613-.069-4.753-.069s-3.513.012-4.753.068a6.512,6.512,0,0,0-2.184.405,3.9,3.9,0,0,0-2.233,2.232,6.51,6.51,0,0,0-.4,2.184c-.057,1.24-.069,1.612-.069,4.753s.012,3.513.069,4.753a6.508,6.508,0,0,0,.4,2.184,3.9,3.9,0,0,0,2.232,2.232,6.5,6.5,0,0,0,2.184.405c1.24.057,1.612.068,4.753.068s3.513-.012,4.753-.068a6.5,6.5,0,0,0,2.184-.405,3.9,3.9,0,0,0,2.232-2.232,6.515,6.515,0,0,0,.405-2.184c.057-1.241.068-1.613.068-4.753s-.012-3.513-.068-4.753A6.5,6.5,0,0,0,154.3,138.195Zm-9.17,12.978a6.04,6.04,0,1,1,6.04-6.04A6.04,6.04,0,0,1,145.128,151.172Zm6.279-10.908a1.412,1.412,0,1,1,1.412-1.412A1.412,1.412,0,0,1,151.407,140.264Zm0,0" transform="translate(-124.643 -124.647)" fill="#947a63"/>
  <path id="Path_2557" data-name="Path 2557" d="M20.485,0A20.485,20.485,0,1,0,40.97,20.485,20.487,20.487,0,0,0,20.485,0ZM32.177,25.335a8.63,8.63,0,0,1-.547,2.855,6.015,6.015,0,0,1-3.44,3.44,8.636,8.636,0,0,1-2.855.547c-1.254.057-1.655.071-4.85.071s-3.6-.014-4.85-.071a8.636,8.636,0,0,1-2.855-.547,6.015,6.015,0,0,1-3.44-3.44,8.628,8.628,0,0,1-.547-2.855c-.058-1.255-.071-1.655-.071-4.85s.013-3.6.071-4.85a8.631,8.631,0,0,1,.546-2.855A6.019,6.019,0,0,1,12.78,9.34a8.638,8.638,0,0,1,2.855-.547c1.254-.057,1.655-.071,4.85-.071s3.6.014,4.85.071a8.64,8.64,0,0,1,2.855.546,6.016,6.016,0,0,1,3.44,3.441,8.629,8.629,0,0,1,.547,2.855c.057,1.254.071,1.655.071,4.85S32.234,24.08,32.177,25.335Zm0,0" fill="#947a63"/>
</svg>
