<svg id="instagram" xmlns="http://www.w3.org/2000/svg" width="20" height="20" viewBox="0 0 20 20">
  <path id="Path_17" data-name="Path 17" d="M211.019,209.01a2.01,2.01,0,1,1-2.01-2.01A2.01,2.01,0,0,1,211.019,209.01Zm0,0" transform="translate(-199.01 -199.01)" fill="#fff"/>
  <path id="Path_18" data-name="Path 18" d="M145.127,136.875a2,2,0,0,0-1.144-1.144,3.336,3.336,0,0,0-1.119-.207c-.636-.029-.826-.035-2.436-.035s-1.8.006-2.436.035a3.338,3.338,0,0,0-1.119.208,2,2,0,0,0-1.144,1.144,3.337,3.337,0,0,0-.207,1.119c-.029.636-.035.826-.035,2.436s.006,1.8.035,2.436a3.335,3.335,0,0,0,.207,1.119,2,2,0,0,0,1.144,1.144,3.331,3.331,0,0,0,1.119.208c.636.029.826.035,2.436.035s1.8-.006,2.436-.035a3.331,3.331,0,0,0,1.119-.208,2,2,0,0,0,1.144-1.144,3.339,3.339,0,0,0,.208-1.119c.029-.636.035-.826.035-2.436s-.006-1.8-.035-2.436A3.332,3.332,0,0,0,145.127,136.875Zm-4.7,6.651a3.1,3.1,0,1,1,3.1-3.1A3.1,3.1,0,0,1,140.427,143.527Zm3.218-5.59a.723.723,0,1,1,.723-.723A.724.724,0,0,1,143.645,137.936Zm0,0" transform="translate(-130.427 -130.431)" fill="#fff"/>
  <path id="Path_19" data-name="Path 19" d="M10,0A10,10,0,1,0,20,10,10,10,0,0,0,10,0Zm5.708,12.367a4.213,4.213,0,0,1-.267,1.394,2.936,2.936,0,0,1-1.679,1.679,4.216,4.216,0,0,1-1.394.267c-.612.028-.808.035-2.367.035s-1.755-.007-2.368-.035a4.216,4.216,0,0,1-1.394-.267,2.936,2.936,0,0,1-1.679-1.679,4.212,4.212,0,0,1-.267-1.394c-.028-.612-.035-.808-.035-2.368s.007-1.755.035-2.367a4.213,4.213,0,0,1,.267-1.394,2.938,2.938,0,0,1,1.68-1.679,4.217,4.217,0,0,1,1.394-.267c.612-.028.808-.035,2.367-.035s1.755.007,2.367.035a4.218,4.218,0,0,1,1.394.267,2.937,2.937,0,0,1,1.679,1.68,4.212,4.212,0,0,1,.267,1.394c.028.612.034.808.034,2.367S15.736,11.755,15.708,12.367Zm0,0" fill="#fff"/>
</svg>
