<svg id="Group_43" data-name="Group 43" xmlns="http://www.w3.org/2000/svg" xmlns:xlink="http://www.w3.org/1999/xlink" width="39" height="39" viewBox="0 0 39 39">
  <defs>
    <linearGradient id="linear-gradient" x1="0.054" y1="0.954" x2="0.956" y2="0.093" gradientUnits="objectBoundingBox">
      <stop offset="0" stop-color="#ffda54"/>
      <stop offset="0.548" stop-color="#ff543e"/>
      <stop offset="1" stop-color="#cb39a4"/>
    </linearGradient>
  </defs>
  <rect id="Rectangle_19" data-name="Rectangle 19" width="39" height="39" rx="6" fill="url(#linear-gradient)"/>
  <path id="Path_30" data-name="Path 30" d="M16.005,3.143c-5.272,0-10.279-.469-12.191,4.439-.79,2.027-.675,4.66-.675,8.429,0,3.308-.106,6.417.675,8.428,1.908,4.911,6.955,4.44,12.188,4.44,5.049,0,10.254.526,12.19-4.44.791-2.047.675-4.641.675-8.428,0-5.027.277-8.272-2.161-10.709C24.239,2.834,20.9,3.143,16,3.143ZM14.852,5.462c11-.017,12.4-1.24,11.625,15.745-.274,6.007-4.848,5.348-10.471,5.348-10.251,0-10.546-.293-10.546-10.549,0-10.375.813-10.538,9.392-10.546ZM22.874,7.6a1.544,1.544,0,1,0,1.544,1.544A1.544,1.544,0,0,0,22.874,7.6ZM16.005,9.4a6.608,6.608,0,1,0,6.605,6.608A6.608,6.608,0,0,0,16.005,9.4Zm0,2.319c5.67,0,5.678,8.579,0,8.579S10.328,11.722,16.005,11.722Z" transform="translate(3.71 3.713)" fill="#fff"/>
</svg>
