<svg xmlns="http://www.w3.org/2000/svg" width="21.055" height="21.055" viewBox="0 0 21.055 21.055">
  <path id="Subtraction_1" data-name="Subtraction 1" d="M10.527,21.055h0A10.528,10.528,0,0,1,3.082,3.084,10.528,10.528,0,1,1,17.973,17.97,10.457,10.457,0,0,1,10.527,21.055Zm.248-15.846a3.905,3.905,0,0,0-3.9,3.9c0,2.663,3.491,6.587,3.64,6.753a.352.352,0,0,0,.523,0c.149-.166,3.639-4.088,3.639-6.753A3.905,3.905,0,0,0,10.775,5.209Zm0,5.863A1.962,1.962,0,1,1,12.738,9.11,1.964,1.964,0,0,1,10.775,11.072Z" fill="#947a63"/>
</svg>
