<svg xmlns="http://www.w3.org/2000/svg" width="24.736" height="24.736" viewBox="0 0 24.736 24.736">
  <path id="Path_2475" data-name="Path 2475" d="M16.734,8.732c-.259,0-.515.013-.768.037C15.991,8.517,16,8.261,16,8a8,8,0,1,0-8,8c.259,0,.515-.013.768-.037-.024.253-.037.509-.037.768a8,8,0,1,0,8-8Zm6.512,7.277h-1.49A5.048,5.048,0,0,0,20.8,13.7l1.053-1.053A6.521,6.521,0,0,1,23.246,16.009Zm-5.787-5.787a6.522,6.522,0,0,1,3.365,1.4l-1.053,1.053a5.048,5.048,0,0,0-2.312-.96Zm-1.449,0v1.49a5.048,5.048,0,0,0-2.312.96l-.037-.037-1.016-1.016a6.522,6.522,0,0,1,3.365-1.4ZM12.672,13.7a5.049,5.049,0,0,0-.96,2.312h-1.49a6.522,6.522,0,0,1,1.4-3.365l1.016,1.016Zm.074-3.9a5.03,5.03,0,0,0,.277-1.073h1.49q-.019.168-.046.333A7.959,7.959,0,0,0,12.746,9.8Zm1.768-2.522h-1.49a5.048,5.048,0,0,0-.96-2.312l1.053-1.053A6.521,6.521,0,0,1,14.514,7.277ZM8.726,1.49a6.522,6.522,0,0,1,3.365,1.4L11.039,3.94a5.048,5.048,0,0,0-2.312-.96Zm-1.449,0V2.98a5.048,5.048,0,0,0-2.312.96L3.912,2.887a6.521,6.521,0,0,1,3.365-1.4ZM2.887,3.912,3.94,4.965a5.049,5.049,0,0,0-.96,2.312H1.49a6.522,6.522,0,0,1,1.4-3.365ZM1.49,8.726H2.98a5.048,5.048,0,0,0,.96,2.312L2.887,12.092a6.521,6.521,0,0,1-1.4-3.365Zm5.787,5.787a6.522,6.522,0,0,1-3.365-1.4l1.053-1.053a5.048,5.048,0,0,0,2.312.96ZM4.377,8A3.624,3.624,0,1,1,8,11.626,3.628,3.628,0,0,1,4.377,8ZM9.06,14.468q-.165.027-.333.046v-1.49A5.03,5.03,0,0,0,9.8,12.746,7.961,7.961,0,0,0,9.06,14.468Zm1.162,2.991h1.49a5.048,5.048,0,0,0,.96,2.312l-1.053,1.053A6.521,6.521,0,0,1,10.222,17.459Zm5.787,5.787a6.522,6.522,0,0,1-3.365-1.4L13.7,20.8a5.048,5.048,0,0,0,2.312.96Zm-2.9-6.512a3.624,3.624,0,1,1,3.624,3.624A3.628,3.628,0,0,1,13.11,16.734Zm4.349,6.512v-1.49a5.048,5.048,0,0,0,2.312-.96l1.053,1.053A6.521,6.521,0,0,1,17.459,23.246Zm4.39-2.422L20.8,19.771a5.049,5.049,0,0,0,.96-2.312h1.49A6.522,6.522,0,0,1,21.849,20.824Z"/>
</svg>
