<svg id="arroba" xmlns="http://www.w3.org/2000/svg" width="21.055" height="21.055" viewBox="0 0 21.055 21.055">
  <g id="Group_4" data-name="Group 4" transform="translate(8.514 8.433)">
    <g id="Group_3" data-name="Group 3">
      <path id="Path_13" data-name="Path 13" d="M214.054,210a2.054,2.054,0,1,0,2.054,2.054A2.056,2.056,0,0,0,214.054,210Z" transform="translate(-212 -210)" fill="#947a63"/>
    </g>
  </g>
  <g id="Group_6" data-name="Group 6">
    <g id="Group_5" data-name="Group 5">
      <path id="Path_14" data-name="Path 14" d="M10.486,0a10.528,10.528,0,0,0,0,21.055A10.639,10.639,0,0,0,21.055,10.486,10.569,10.569,0,0,0,10.486,0Zm4.4,13.571a2.462,2.462,0,0,1-2.016-1.053,3.086,3.086,0,1,1-.452-4.483V8.019a.617.617,0,1,1,1.234,0V11.1a1.234,1.234,0,1,0,2.467,0c0-4.128-2.732-6.168-5.552-6.168a5.552,5.552,0,1,0,0,11.1,5.492,5.492,0,0,0,3.375-1.143.617.617,0,0,1,.752.978,6.719,6.719,0,0,1-4.126,1.4,6.785,6.785,0,1,1,0-13.571c3.409,0,6.785,2.514,6.785,7.4A2.47,2.47,0,0,1,14.887,13.571Z" fill="#947a63"/>
    </g>
  </g>
</svg>
