<svg xmlns="http://www.w3.org/2000/svg" width="30" height="12.34" viewBox="0 0 30 12.34">
  <g id="measuring-tape" transform="translate(0 0)">
    <path id="Path_2492" data-name="Path 2492" d="M119.123,175.714a26.336,26.336,0,0,0,7.878,0c1.316-.238,1.9-.565,1.9-1.059s-.587-.82-1.9-1.059a26.336,26.336,0,0,0-7.878,0c-1.316.238-1.9.565-1.9,1.059S117.807,175.475,119.123,175.714Zm3.939-1.687a13.924,13.924,0,0,1,5.024.628,13.925,13.925,0,0,1-5.024.628,13.925,13.925,0,0,1-5.024-.628A13.922,13.922,0,0,1,123.062,174.027Z" transform="translate(-110.586 -172.08)"/>
    <path id="Path_2493" data-name="Path 2493" d="M35.638,157.545H30.92v-1.83c0-.46-.382-.847-1.169-1.183a12.957,12.957,0,0,0-2.671-.72,50.939,50.939,0,0,0-8.621-.647,50.942,50.942,0,0,0-8.621.647,12.959,12.959,0,0,0-2.671.719c-.765.327-1.147.7-1.167,1.146a.368.368,0,0,0,0,.038v7.24a.368.368,0,0,0,0,.038c.02.443.4.819,1.167,1.146a12.957,12.957,0,0,0,2.671.719,50.911,50.911,0,0,0,8.621.647H35.638a.36.36,0,0,0,.36-.36V157.9A.36.36,0,0,0,35.638,157.545ZM9.966,154.52a50.185,50.185,0,0,1,8.492-.636,50.159,50.159,0,0,1,8.492.636c2.652.48,3.248,1.037,3.248,1.195s-.6.715-3.248,1.195a50.178,50.178,0,0,1-8.492.636,50.154,50.154,0,0,1-8.492-.636c-.407-.074-.765-.149-1.081-.225l-.022-.005c-1.722-.415-2.146-.832-2.146-.965,0-.157.6-.715,3.248-1.195ZM30.2,156.674v.871H27.463a11.889,11.889,0,0,0,2.287-.647,4.025,4.025,0,0,0,.449-.224Zm5.078,8.111H33.314v-3.47a.36.36,0,1,0-.72,0v3.47H18.459a50.156,50.156,0,0,1-8.492-.636c-2.652-.48-3.248-1.037-3.248-1.195v-6.28a4.024,4.024,0,0,0,.449.224,9.065,9.065,0,0,0,1.268.416v3.509a.37.37,0,0,0,.349.375.36.36,0,0,0,.371-.36v-3.355q.326.069.683.134.3.054.611.1v1.492a.37.37,0,0,0,.349.375.36.36,0,0,0,.371-.36v-1.4q.622.085,1.293.153v3.3a.37.37,0,0,0,.349.375.36.36,0,0,0,.371-.36v-3.248q.631.055,1.293.1v1.684a.37.37,0,0,0,.349.375.36.36,0,0,0,.371-.36v-1.659q.636.032,1.293.051v3.314a.37.37,0,0,0,.349.375.36.36,0,0,0,.371-.36v-3.312q.619.011,1.251.012H18.5v1.485a.37.37,0,0,0,.349.375.36.36,0,0,0,.371-.36v-1.5h1.293v3.5a.37.37,0,0,0,.349.375.36.36,0,0,0,.371-.36v-3.513h1.293v1.485a.37.37,0,0,0,.349.375.36.36,0,0,0,.371-.36v-1.5h1.293v3.5a.37.37,0,0,0,.349.375.36.36,0,0,0,.371-.36v-3.513h1.293v1.485a.37.37,0,0,0,.349.375.36.36,0,0,0,.371-.36v-1.5h1.293v3.5a.37.37,0,0,0,.349.375.36.36,0,0,0,.371-.36v-3.513H30.58v1.485a.37.37,0,0,0,.349.375.36.36,0,0,0,.371-.36v-1.5h1.293v1.31a.36.36,0,0,0,.72,0v-1.31h1.964Z" transform="translate(-5.998 -153.164)"/>
  </g>
</svg>
