<svg xmlns="http://www.w3.org/2000/svg" width="21.055" height="21.055" viewBox="0 0 21.055 21.055">
  <g id="Group_1" data-name="Group 1" transform="translate(0 0)">
    <path id="Path_1" data-name="Path 1" d="M17.97,3.082a10.528,10.528,0,1,0,3.085,7.443A10.528,10.528,0,0,0,17.97,3.082ZM15.943,14.664h0v0l-.533.53a2.807,2.807,0,0,1-2.649.758,9.328,9.328,0,0,1-2.709-1.214,12.517,12.517,0,0,1-2.137-1.723,12.613,12.613,0,0,1-1.6-1.937,9.825,9.825,0,0,1-1.2-2.428,2.807,2.807,0,0,1,.7-2.867l.625-.625a.446.446,0,0,1,.63,0h0L9.046,7.128a.446.446,0,0,1,0,.63h0L7.888,8.918a.944.944,0,0,0-.1,1.228,13.543,13.543,0,0,0,1.386,1.618A13.46,13.46,0,0,0,11,13.3a.951.951,0,0,0,1.214-.105l1.119-1.137a.446.446,0,0,1,.63,0h0l1.976,1.979A.446.446,0,0,1,15.943,14.664Z" transform="translate(0 0)" fill="#947a63"/>
  </g>
</svg>
