<svg xmlns="http://www.w3.org/2000/svg" width="26.615" height="29" viewBox="0 0 26.615 29">
  <path id="Vector" d="M26.1,9.733a1.271,1.271,0,0,0-.712-.3L17.8,8.774,14.52.857a1.42,1.42,0,0,0-.49-.624,1.237,1.237,0,0,0-1.445,0,1.42,1.42,0,0,0-.49.623L8.812,8.774l-7.587.657a1.269,1.269,0,0,0-.7.292,1.449,1.449,0,0,0-.445.66,1.573,1.573,0,0,0-.045.817,1.488,1.488,0,0,0,.368.714l5.606,5.954L4.026,27.223a1.572,1.572,0,0,0,.055.851,1.437,1.437,0,0,0,.485.67,1.241,1.241,0,0,0,1.5.012l7.246-5.263,7.246,5.263a1.243,1.243,0,0,0,1.522-.036,1.449,1.449,0,0,0,.474-.7,1.575,1.575,0,0,0,.023-.869l-2.434-9.279,6.036-5.918a1.54,1.54,0,0,0,.37-1.544h0A1.455,1.455,0,0,0,26.1,9.733Z" transform="translate(0 0)" fill="#947a63"/>
</svg>
