<svg id="Group_42" data-name="Group 42" xmlns="http://www.w3.org/2000/svg" width="39" height="39" viewBox="0 0 39 39">
  <g id="Group_10221" data-name="Group 10221">
    <rect id="Rectangle_20" data-name="Rectangle 20" width="39" height="39" rx="6" fill="#55acee"/>
    <path id="twitter" d="M23.591,8.5c0-.246-.009-.486-.02-.722a10.982,10.982,0,0,0,2.7-2.9h0a10.932,10.932,0,0,1-3.1.882,5.526,5.526,0,0,0,2.37-3.088,10.543,10.543,0,0,1-3.415,1.353A5.306,5.306,0,0,0,18.188,2.25a5.488,5.488,0,0,0-5.382,5.589,5.962,5.962,0,0,0,.125,1.274,15.074,15.074,0,0,1-11.1-5.845,5.8,5.8,0,0,0-.738,2.824,5.652,5.652,0,0,0,2.393,4.644,5.177,5.177,0,0,1-2.433-.688v.061A5.567,5.567,0,0,0,5.366,15.6a5.493,5.493,0,0,1-2.431.089,5.469,5.469,0,0,0,5.032,3.893,10.58,10.58,0,0,1-6.678,2.383A9.822,9.822,0,0,1,0,21.888,14.772,14.772,0,0,0,8.262,24.4c9.911,0,15.329-8.517,15.329-15.9Z" transform="translate(5.996 5.734)" fill="#fff"/>
  </g>
</svg>
