<svg xmlns="http://www.w3.org/2000/svg" width="40.97" height="40.97" viewBox="0 0 40.97 40.97">
  <path id="twitter" d="M20.485,0A20.485,20.485,0,1,0,40.97,20.485,20.487,20.487,0,0,0,20.485,0Zm9.353,15.972q.014.3.013.608A13.287,13.287,0,0,1,16.474,29.958h0a13.309,13.309,0,0,1-7.207-2.112,9.563,9.563,0,0,0,1.122.065,9.434,9.434,0,0,0,5.84-2.013,4.707,4.707,0,0,1-4.393-3.266,4.686,4.686,0,0,0,2.124-.081,4.7,4.7,0,0,1-3.772-4.609c0-.021,0-.04,0-.06a4.669,4.669,0,0,0,2.13.588,4.706,4.706,0,0,1-1.456-6.277,13.349,13.349,0,0,0,9.692,4.913,4.7,4.7,0,0,1,8.012-4.288,9.431,9.431,0,0,0,2.986-1.141,4.72,4.72,0,0,1-2.068,2.6,9.377,9.377,0,0,0,2.7-.74,9.555,9.555,0,0,1-2.345,2.435Zm0,0" fill="#947a63"/>
</svg>
